<svg xmlns="http://www.w3.org/2000/svg" width="1280" height="720" viewBox="0 0 1280 720">
  <rect width="1280" height="720" fill="#080d12"/>
  <text x="80" y="72" fill="#56c7d9" font-family="SFMono-Regular, Menlo, monospace" font-size="20" font-weight="700">AFTER · INK 7</text>
  <text x="80" y="108" fill="#9aa6b2" font-family="SFMono-Regular, Menlo, monospace" font-size="18">Arrow keys patch only the rows that changed. The alternate screen stays stable.</text>
  <rect x="80" y="146" width="1120" height="500" rx="8" fill="#101820" stroke="#2a3946" stroke-width="2"/>
  <circle cx="108" cy="173" r="6" fill="#f27d6f"/>
  <circle cx="130" cy="173" r="6" fill="#d6b45f"/>
  <circle cx="152" cy="173" r="6" fill="#68c58a"/>
  <text x="184" y="180" fill="#72808d" font-family="SFMono-Regular, Menlo, monospace" font-size="15">atlas-core</text>
  <line x1="80" y1="198" x2="1200" y2="198" stroke="#2a3946" stroke-width="2"/>
  <g font-family="SFMono-Regular, Menlo, monospace" font-size="18">
    <text x="112" y="235" fill="#56c7d9" font-weight="700">ATLAS CORE</text>
    <text x="1000" y="235" fill="#72808d">v0.1.5  READY</text>
    <text x="112" y="269" fill="#72808d">Manage one durable deployment</text>
    <text x="112" y="303" fill="#53616d">──────────────────────────────────────────────────────────────</text>
    <text x="112" y="339" fill="#e4ebf1" font-weight="700">ACTIONS</text>
    <text x="585" y="339" fill="#e4ebf1" font-weight="700">DETAILS</text>
    <rect x="105" y="354" width="432" height="30" fill="#d9e1e8"/>
    <text x="118" y="376" fill="#101820">&gt; View status</text>
    <text x="118" y="412" fill="#b9c4cd">  Stop Atlas Core</text>
    <text x="118" y="448" fill="#b9c4cd">  Restart Atlas Core</text>
    <text x="118" y="484" fill="#b9c4cd">  Update</text>
    <text x="118" y="520" fill="#b9c4cd">  Configure</text>
    <line x1="558" y1="326" x2="558" y2="530" stroke="#53616d" stroke-width="2"/>
    <text x="585" y="376" fill="#e4ebf1">View status</text>
    <text x="585" y="412" fill="#b9c4cd">Everything is healthy.</text>
    <text x="112" y="560" fill="#53616d">──────────────────────────────────────────────────────────────</text>
    <text x="112" y="596" fill="#68c58a" font-weight="700">READY</text>
    <text x="830" y="596" fill="#72808d">Filter: type to filter</text>
    <text x="112" y="626" fill="#e4ebf1">Everything is healthy.</text>
  </g>
  <text x="836" y="626" fill="#68c58a" font-family="SFMono-Regular, Menlo, monospace" font-size="16" font-weight="700">CHANGED ROWS ONLY</text>
</svg>
